HIERARCHY
ROOT Hips
{
  OFFSET 179.979 97.3047 303.174
  CHANNELS 6 Xposition Yposition Zposition Zrotation Xrotation Yrotation
  JOINT Spine
  {
    OFFSET 0.000859786 9.92346 -1.22733
    CHANNELS 3 Zrotation Xrotation Yrotation
    JOINT Spine1
    {
      OFFSET 0 11.732 0
      CHANNELS 3 Zrotation Xrotation Yrotation
      JOINT Spine2
      {
        OFFSET 0 13.4588 0
        CHANNELS 3 Zrotation Xrotation Yrotation
        JOINT Neck
        {
          OFFSET 2.54812e-05 15.0278 0.877907
          CHANNELS 3 Zrotation Xrotation Yrotation
          JOINT Head
          {
            OFFSET 0 10.3218 3.14243
            CHANNELS 3 Zrotation Xrotation Yrotation
            End Site
            {
              OFFSET 0 0 0
            }
          }
        }
        JOINT LeftShoulder
        {
          OFFSET 6.10582 9.10629 0.757062
          CHANNELS 3 Zrotation Xrotation Yrotation
          JOINT LeftArm
          {
            OFFSET 0 12.9223 0
            CHANNELS 3 Zrotation Xrotation Yrotation
            JOINT LeftForeArm
            {
              OFFSET 0 27.4047 0
              CHANNELS 3 Zrotation Xrotation Yrotation
              JOINT LeftHand
              {
                OFFSET -1.28204e-05 27.6145 0
                CHANNELS 3 Zrotation Xrotation Yrotation
                End Site
                {
                  OFFSET 0 0 0
                }
              }
            }
          }
        }
        JOINT RightShoulder
        {
          OFFSET -6.1057 9.10638 0.757076
          CHANNELS 3 Zrotation Xrotation Yrotation
          JOINT RightArm
          {
            OFFSET 0 12.9223 0
            CHANNELS 3 Zrotation Xrotation Yrotation
            JOINT RightForeArm
            {
              OFFSET 0 27.4047 0
              CHANNELS 3 Zrotation Xrotation Yrotation
              JOINT RightHand
              {
                OFFSET 1.28428e-05 27.6145 1.44975e-05
                CHANNELS 3 Zrotation Xrotation Yrotation
                End Site
                {
                  OFFSET 0 0 0
                }
              }
            }
          }
        }
      }
    }
  }
  JOINT LeftUpLeg
  {
    OFFSET 9.12387 -6.65719 -0.0554031
    CHANNELS 3 Zrotation Xrotation Yrotation
    JOINT LeftLeg
    {
      OFFSET 0 40.5994 0
      CHANNELS 3 Zrotation Xrotation Yrotation
      JOINT LeftFoot
      {
        OFFSET 0 42.099 0
        CHANNELS 3 Zrotation Xrotation Yrotation
        JOINT LeftToeBase
        {
          OFFSET 0 15.7216 0
          CHANNELS 3 Zrotation Xrotation Yrotation
          End Site
          {
            OFFSET 0 0 0
          }
        }
      }
    }
  }
  JOINT RightUpLeg
  {
    OFFSET -9.12503 -6.6556 -0.0553527
    CHANNELS 3 Zrotation Xrotation Yrotation
    JOINT RightLeg
    {
      OFFSET 0 40.5994 0
      CHANNELS 3 Zrotation Xrotation Yrotation
      JOINT RightFoot
      {
        OFFSET 0 42.099 0
        CHANNELS 3 Zrotation Xrotation Yrotation
        JOINT RightToeBase
        {
          OFFSET 0 15.7216 0
          CHANNELS 3 Zrotation Xrotation Yrotation
          End Site
          {
            OFFSET 0 0 0
          }
        }
      }
    }
  }
}
MOTION
Frames:	10
Frame Time:	0.0333333
-161.977 98.1025 45.8958 -0.575619 3.40882 1.5624 0.0702289 -6.99459 -0.0365449 0.173497 -0.0434135 -0.0894941 0.185296 6.55107 -0.0897948 1.91652 13.3839 -3.05049 -4.06836 -25.3439 -2.47268 -86.9091 -18.2506 89.9387 3.77466 9.08377 -13.1911 41.72 -28.6529 -1.28714 -8.99132 -19.0157 6.06019 90.4197 -16.2295 -90.133 -2.49649 11.0176 22.1763 -35.8521 -16.0252 0.953782 5.04305 -11.3938 -7.2053 -176.211 10.9918 -10.213 1.72158 -21.1856 -8.35462 20.8693 74.9297 -24.7516 -0.965263 26.367 -3.60229 178.303 9.28278 6.72389 -2.3523 -18.8421 9.8859 -29.1481 77.1388 34.5707 0.963539 26.3682 3.55537 
-161.971 98.1024 45.8926 -0.575334 3.41206 1.55614 0.0702289 -6.99459 -0.0365449 0.173497 -0.0434135 -0.0894941 0.185296 6.55107 -0.0897948 1.91738 13.3742 -3.05652 -4.06725 -25.3499 -2.47824 -86.9092 -18.2502 89.9387 3.77635 9.09086 -13.1913 41.7233 -28.6504 -1.28711 -8.99095 -19.0153 6.07168 90.4269 -16.234 -90.1325 -2.49976 11.0414 22.1848 -35.847 -16.0252 0.953782 5.04571 -11.3652 -7.20973 -176.213 10.9938 -10.2066 1.71883 -21.1852 -8.36304 20.8929 74.9279 -24.7732 -0.965263 26.367 -3.60229 178.3 9.27404 6.73034 -2.35083 -18.8206 9.88021 -29.1153 77.1353 34.5377 0.963539 26.3682 3.55537 
-161.937 98.1018 45.8738 -0.57347 3.42845 1.51757 0.0702289 -6.99459 -0.0365449 0.173497 -0.0434135 -0.0894941 0.185296 6.55107 -0.0897948 1.92278 13.3347 -3.0906 -4.04895 -25.3851 -2.51403 -86.9061 -18.2604 89.9404 3.79279 9.12901 -13.1926 41.7453 -28.628 -1.28683 -9.00023 -19.0089 6.14562 90.4631 -16.2514 -90.1312 -2.51417 11.146 22.1648 -35.7835 -16.0252 0.953782 5.07318 -11.2188 -7.11941 -176.236 11.0161 -10.1195 1.69228 -21.1816 -8.44405 21.089 74.9129 -24.953 -0.965263 26.367 -3.60229 178.281 9.29276 6.77597 -2.35201 -18.7746 9.8388 -28.9218 77.121 34.3439 0.963539 26.3682 3.55537 
-161.9 98.1016 45.8527 -0.571084 3.43808 1.47357 0.0702289 -6.99459 -0.0365449 0.173503 -0.0399183 -0.0894941 0.185301 6.55457 -0.0897954 1.88337 13.3032 -3.10441 -3.99433 -25.3824 -2.54471 -86.9183 -18.3107 89.94 3.8338 9.15687 -13.1929 41.779 -28.5942 -1.28642 -9.00676 -19.0011 6.18841 90.4879 -16.2482 -90.1319 -2.52188 11.22 22.0794 -35.6914 -16.0252 0.953782 5.08728 -11.1044 -6.97755 -176.262 11.032 -10.0786 1.67937 -21.1802 -8.49758 21.2341 74.9018 -25.0825 -0.965263 26.367 -3.60229 178.258 9.30759 6.76719 -2.34548 -18.7422 9.82518 -28.8036 77.101 34.2249 0.963539 26.3682 3.55537 
-161.861 98.1018 45.8298 -0.568166 3.43536 1.42606 0.0702323 -6.98926 -0.0365445 0.17352 -0.0292538 -0.0894941 0.185318 6.56522 -0.0897974 1.82155 13.3113 -3.1093 -3.92987 -25.4026 -2.57557 -86.9362 -18.3495 89.9371 3.85944 9.1847 -13.1959 41.8066 -28.5637 -1.28604 -8.98549 -18.9813 6.23175 90.4983 -16.2301 -90.1338 -2.50378 11.2906 22.0148 -35.6251 -16.0252 0.953782 5.09956 -11.0227 -6.9162 -176.296 11.0432 -10.0689 1.67951 -21.1913 -8.53075 21.3407 74.8937 -25.172 -0.965263 26.367 -3.60229 178.225 9.31851 6.72169 -2.32643 -18.7307 9.82835 -28.7368 77.0839 34.1633 0.963539 26.3682 3.55537 
-161.822 98.1022 45.805 -0.560046 3.42633 1.38496 0.0702367 -6.98253 -0.0365439 0.173541 -0.015764 -0.089494 0.185339 6.5787 -0.0897998 1.80116 13.3591 -3.13704 -3.90285 -25.4456 -2.61466 -86.9433 -18.3299 89.9335 3.84375 9.21758 -13.1811 41.8067 -28.5482 -1.28585 -8.9393 -18.9708 6.33039 90.5126 -16.2339 -90.1336 -2.46799 11.3527 21.9548 -35.6041 -16.0252 0.953782 5.09189 -11.0943 -7.02845 -176.33 11.0476 -10.068 1.6768 -21.2028 -8.55527 21.429 74.8871 -25.2393 -0.965263 26.367 -3.60229 178.189 9.32675 6.66548 -2.30658 -18.7278 9.83564 -28.6888 77.071 34.1238 0.963539 26.3682 3.55537 
-161.787 98.1025 45.779 -0.552974 3.42199 1.35718 0.0702401 -6.97712 -0.0365435 0.173557 -0.0049687 -0.089494 0.185356 6.58951 -0.0898018 1.81299 13.4296 -3.17603 -3.90553 -25.493 -2.6527 -86.9443 -18.2909 89.9305 3.80999 9.25232 -13.1443 41.7814 -28.5467 -1.28584 -8.9362 -18.9099 6.37612 90.5286 -16.2439 -90.1308 -2.41782 11.406 21.9258 -35.6289 -16.0252 0.953782 5.11419 -11.1589 -7.09817 -176.356 11.0581 -10.0743 1.667 -21.2089 -8.57014 21.4945 74.8811 -25.2757 -0.965263 26.367 -3.60229 178.159 9.331 6.61975 -2.29405 -18.7296 9.84121 -28.6383 77.057 34.0838 0.963539 26.3682 3.55537 
-161.753 98.1026 45.7526 -0.546003 3.42097 1.34452 0.070243 -6.97264 -0.0365432 0.168076 0.00399233 -0.09471 0.1805 6.59847 -0.0950556 1.8523 13.5081 -3.21492 -3.92954 -25.5192 -2.67858 -86.9419 -18.2638 89.9321 3.78119 9.28231 -13.0814 41.7419 -28.5519 -1.2859 -9.01142 -18.8138 6.3537 90.5455 -16.2568 -90.1273 -2.36981 11.4502 21.9323 -35.6842 -16.0252 0.953782 5.14877 -11.2615 -6.96157 -176.385 11.074 -10.0559 1.65353 -21.212 -8.5918 21.5708 74.8733 -25.3237 -0.965263 26.367 -3.60229 178.132 9.35325 6.59235 -2.29243 -18.7334 9.84338 -28.5833 77.044 34.038 0.963539 26.3682 3.55537 
-161.721 98.1026 45.7258 -0.540603 3.42129 1.34068 0.0702453 -6.96851 -0.0413753 0.16103 0.0122641 -0.103303 0.174445 6.60673 -0.103703 1.91943 13.5918 -3.24802 -3.96672 -25.5358 -2.68649 -86.9393 -18.2422 89.9339 3.75086 9.29917 -12.9936 41.7111 -28.5755 -1.28619 -9.08147 -18.7177 6.34422 90.5635 -16.2821 -90.1231 -2.33953 11.4839 21.9803 -35.7482 -16.0252 0.953782 5.20196 -11.2685 -6.88713 -176.412 11.0909 -10.0271 1.64025 -21.2124 -8.61452 21.6456 74.8651 -25.3725 -0.965263 26.367 -3.60229 178.109 9.38076 6.57756 -2.29794 -18.7363 9.84428 -28.5234 77.0275 33.9926 0.963539 26.3682 3.55537 
-161.693 98.1027 45.6987 -0.539538 3.42281 1.33873 0.0702484 -6.96414 -0.0475282 0.153569 0.0210108 -0.1146 0.16829 6.61548 -0.11508 1.97546 13.6747 -3.28135 -3.98275 -25.5375 -2.69838 -86.9393 -18.2289 89.9348 3.72707 9.31235 -12.9097 41.6847 -28.6088 -1.2866 -9.09768 -18.6432 6.35177 90.5774 -16.3159 -90.1197 -2.33078 11.4977 21.9765 -35.7718 -16.0252 0.953782 5.26053 -11.2183 -6.79825 -176.437 11.1092 -9.98111 1.62821 -21.2155 -8.64337 21.7287 74.8556 -25.4348 -0.965263 26.367 -3.60229 178.092 9.39905 6.57414 -2.3058 -18.7361 9.84381 -28.457 77.0081 33.9417 0.963539 26.3682 3.55537 
